M48
;DRILL file {KiCad 4.0.4+e1-6308~48~ubuntu16.04.1-stable} date Thu Jan  5 19:53:36 2017
;FORMAT={-:-/ absolute / inch / decimal}
FMAT,2
INCH,TZ
T1C0.016
T2C0.020
T3C0.039
T4C0.039
%
G90
G05
M72
T1
X4.6201Y-2.4951
X4.6722Y-2.747
X4.8031Y-2.5669
X4.877Y-3.1713
X4.935Y-2.5669
X4.9518Y-2.4252
X5.0335Y-2.747
X5.0443Y-2.2116
X5.1319Y-3.1713
X5.1339Y-2.2638
X5.1339Y-2.4252
X5.2411Y-2.687
X5.2421Y-2.2756
X5.2894Y-2.687
X5.374Y-2.7598
X5.4114Y-2.2776
X5.4114Y-2.7598
X5.4124Y-3.8593
X6.0344Y-2.0512
X6.0344Y-2.2323
X6.1083Y-2.9232
X6.2854Y-2.1437
X6.2854Y-2.3248
X6.5659Y-2.9232
T2
X5.923Y-3.9035
X6.023Y-4.0035
X6.123Y-3.9035
T3
X4.0571Y-3.0224
X4.0571Y-3.1224
X4.0571Y-3.2224
X4.0571Y-3.3224
X4.0571Y-3.4224
X4.0571Y-3.5224
X4.0571Y-3.7087
X4.0571Y-3.8087
X4.5815Y-2.0512
X4.6815Y-2.0512
X4.7815Y-2.0512
X4.8815Y-2.0512
X5.2459Y-2.0522
X5.3459Y-2.0522
X5.4459Y-2.0522
X5.5459Y-2.0522
X5.6459Y-2.0522
X5.7459Y-2.0522
X6.7303Y-2.6927
X6.7303Y-2.7927
X6.7303Y-2.8927
X6.7303Y-2.9927
T4
X6.6604Y-3.7215
X6.6604Y-3.9715
T0
M30
