G04 #@! TF.FileFunction,Legend,Top*
%FSLAX46Y46*%
G04 Gerber Fmt 4.6, Leading zero omitted, Abs format (unit mm)*
G04 Created by KiCad (PCBNEW 4.0.4+e1-6308~48~ubuntu16.04.1-stable) date Thu Jan  5 19:53:31 2017*
%MOMM*%
%LPD*%
G01*
G04 APERTURE LIST*
%ADD10C,0.100000*%
%ADD11C,0.300000*%
%ADD12C,0.240000*%
%ADD13C,0.380000*%
%ADD14C,0.150000*%
%ADD15C,0.120000*%
G04 APERTURE END LIST*
D10*
D11*
X105103572Y-94232143D02*
X106246429Y-94232143D01*
X105103572Y-96757143D02*
X106246429Y-96757143D01*
X105675000Y-97328571D02*
X105675000Y-96185714D01*
X168003572Y-76032143D02*
X169146429Y-76032143D01*
X168575000Y-76603571D02*
X168575000Y-75460714D01*
X166957143Y-72703571D02*
X167814286Y-72703571D01*
X167385715Y-74203571D02*
X167385715Y-72703571D01*
X168171429Y-72703571D02*
X169171429Y-74203571D01*
X169171429Y-72703571D02*
X168171429Y-74203571D01*
X167675001Y-71628571D02*
X167175001Y-70914286D01*
X166817858Y-71628571D02*
X166817858Y-70128571D01*
X167389286Y-70128571D01*
X167532144Y-70200000D01*
X167603572Y-70271429D01*
X167675001Y-70414286D01*
X167675001Y-70628571D01*
X167603572Y-70771429D01*
X167532144Y-70842857D01*
X167389286Y-70914286D01*
X166817858Y-70914286D01*
X168175001Y-70128571D02*
X169175001Y-71628571D01*
X169175001Y-70128571D02*
X168175001Y-71628571D01*
X168053572Y-68382143D02*
X169196429Y-68382143D01*
D12*
X108736906Y-66088095D02*
X108303573Y-65469048D01*
X107994049Y-66088095D02*
X107994049Y-64788095D01*
X108489287Y-64788095D01*
X108613096Y-64850000D01*
X108675001Y-64911905D01*
X108736906Y-65035714D01*
X108736906Y-65221429D01*
X108675001Y-65345238D01*
X108613096Y-65407143D01*
X108489287Y-65469048D01*
X107994049Y-65469048D01*
X109294049Y-65407143D02*
X109727382Y-65407143D01*
X109913096Y-66088095D02*
X109294049Y-66088095D01*
X109294049Y-64788095D01*
X109913096Y-64788095D01*
X110408334Y-66026190D02*
X110594048Y-66088095D01*
X110903572Y-66088095D01*
X111027382Y-66026190D01*
X111089286Y-65964286D01*
X111151191Y-65840476D01*
X111151191Y-65716667D01*
X111089286Y-65592857D01*
X111027382Y-65530952D01*
X110903572Y-65469048D01*
X110655953Y-65407143D01*
X110532144Y-65345238D01*
X110470239Y-65283333D01*
X110408334Y-65159524D01*
X110408334Y-65035714D01*
X110470239Y-64911905D01*
X110532144Y-64850000D01*
X110655953Y-64788095D01*
X110965477Y-64788095D01*
X111151191Y-64850000D01*
X111708334Y-65407143D02*
X112141667Y-65407143D01*
X112327381Y-66088095D02*
X111708334Y-66088095D01*
X111708334Y-64788095D01*
X112327381Y-64788095D01*
X112698810Y-64788095D02*
X113441667Y-64788095D01*
X113070238Y-66088095D02*
X113070238Y-64788095D01*
D11*
X142900000Y-55303571D02*
X142900000Y-53803571D01*
X143400000Y-54875000D01*
X143900000Y-53803571D01*
X143900000Y-55303571D01*
X142971429Y-57782143D02*
X143185715Y-57853571D01*
X143542858Y-57853571D01*
X143685715Y-57782143D01*
X143757144Y-57710714D01*
X143828572Y-57567857D01*
X143828572Y-57425000D01*
X143757144Y-57282143D01*
X143685715Y-57210714D01*
X143542858Y-57139286D01*
X143257144Y-57067857D01*
X143114286Y-56996429D01*
X143042858Y-56925000D01*
X142971429Y-56782143D01*
X142971429Y-56639286D01*
X143042858Y-56496429D01*
X143114286Y-56425000D01*
X143257144Y-56353571D01*
X143614286Y-56353571D01*
X143828572Y-56425000D01*
X143400000Y-60403571D02*
X143400000Y-58903571D01*
X141239286Y-55160714D02*
X141167857Y-55232143D01*
X140953571Y-55303571D01*
X140810714Y-55303571D01*
X140596429Y-55232143D01*
X140453571Y-55089286D01*
X140382143Y-54946429D01*
X140310714Y-54660714D01*
X140310714Y-54446429D01*
X140382143Y-54160714D01*
X140453571Y-54017857D01*
X140596429Y-53875000D01*
X140810714Y-53803571D01*
X140953571Y-53803571D01*
X141167857Y-53875000D01*
X141239286Y-53946429D01*
X141239286Y-57853571D02*
X140525000Y-57853571D01*
X140525000Y-56353571D01*
X140382143Y-60403571D02*
X140382143Y-58903571D01*
X141239286Y-60403571D02*
X140596429Y-59546429D01*
X141239286Y-58903571D02*
X140382143Y-59760714D01*
X137871429Y-55232143D02*
X138085715Y-55303571D01*
X138442858Y-55303571D01*
X138585715Y-55232143D01*
X138657144Y-55160714D01*
X138728572Y-55017857D01*
X138728572Y-54875000D01*
X138657144Y-54732143D01*
X138585715Y-54660714D01*
X138442858Y-54589286D01*
X138157144Y-54517857D01*
X138014286Y-54446429D01*
X137942858Y-54375000D01*
X137871429Y-54232143D01*
X137871429Y-54089286D01*
X137942858Y-53946429D01*
X138014286Y-53875000D01*
X138157144Y-53803571D01*
X138514286Y-53803571D01*
X138728572Y-53875000D01*
X138764286Y-57710714D02*
X138692857Y-57782143D01*
X138478571Y-57853571D01*
X138335714Y-57853571D01*
X138121429Y-57782143D01*
X137978571Y-57639286D01*
X137907143Y-57496429D01*
X137835714Y-57210714D01*
X137835714Y-56996429D01*
X137907143Y-56710714D01*
X137978571Y-56567857D01*
X138121429Y-56425000D01*
X138335714Y-56353571D01*
X138478571Y-56353571D01*
X138692857Y-56425000D01*
X138764286Y-56496429D01*
X138764286Y-60403571D02*
X138050000Y-60403571D01*
X138050000Y-58903571D01*
X135471429Y-55232143D02*
X135685715Y-55303571D01*
X136042858Y-55303571D01*
X136185715Y-55232143D01*
X136257144Y-55160714D01*
X136328572Y-55017857D01*
X136328572Y-54875000D01*
X136257144Y-54732143D01*
X136185715Y-54660714D01*
X136042858Y-54589286D01*
X135757144Y-54517857D01*
X135614286Y-54446429D01*
X135542858Y-54375000D01*
X135471429Y-54232143D01*
X135471429Y-54089286D01*
X135542858Y-53946429D01*
X135614286Y-53875000D01*
X135757144Y-53803571D01*
X136114286Y-53803571D01*
X136328572Y-53875000D01*
X135507143Y-57853571D02*
X135507143Y-56353571D01*
X135864286Y-56353571D01*
X136078571Y-56425000D01*
X136221429Y-56567857D01*
X136292857Y-56710714D01*
X136364286Y-56996429D01*
X136364286Y-57210714D01*
X136292857Y-57496429D01*
X136221429Y-57639286D01*
X136078571Y-57782143D01*
X135864286Y-57853571D01*
X135507143Y-57853571D01*
X135542857Y-59975000D02*
X136257143Y-59975000D01*
X135400000Y-60403571D02*
X135900000Y-58903571D01*
X136400000Y-60403571D01*
X145378572Y-54382143D02*
X146521429Y-54382143D01*
X132678572Y-54382143D02*
X133821429Y-54382143D01*
X133250000Y-54953571D02*
X133250000Y-53810714D01*
X123403572Y-54382143D02*
X124546429Y-54382143D01*
X121864286Y-55160714D02*
X121792857Y-55232143D01*
X121578571Y-55303571D01*
X121435714Y-55303571D01*
X121221429Y-55232143D01*
X121078571Y-55089286D01*
X121007143Y-54946429D01*
X120935714Y-54660714D01*
X120935714Y-54446429D01*
X121007143Y-54160714D01*
X121078571Y-54017857D01*
X121221429Y-53875000D01*
X121435714Y-53803571D01*
X121578571Y-53803571D01*
X121792857Y-53875000D01*
X121864286Y-53946429D01*
X121864286Y-57853571D02*
X121150000Y-57853571D01*
X121150000Y-56353571D01*
X121007143Y-60403571D02*
X121007143Y-58903571D01*
X121864286Y-60403571D02*
X121221429Y-59546429D01*
X121864286Y-58903571D02*
X121007143Y-59760714D01*
X118557143Y-55303571D02*
X118557143Y-53803571D01*
X118914286Y-53803571D01*
X119128571Y-53875000D01*
X119271429Y-54017857D01*
X119342857Y-54160714D01*
X119414286Y-54446429D01*
X119414286Y-54660714D01*
X119342857Y-54946429D01*
X119271429Y-55089286D01*
X119128571Y-55232143D01*
X118914286Y-55303571D01*
X118557143Y-55303571D01*
X118950000Y-57853571D02*
X118950000Y-56353571D01*
X118807143Y-58903571D02*
X119092857Y-58903571D01*
X119235715Y-58975000D01*
X119378572Y-59117857D01*
X119450000Y-59403571D01*
X119450000Y-59903571D01*
X119378572Y-60189286D01*
X119235715Y-60332143D01*
X119092857Y-60403571D01*
X118807143Y-60403571D01*
X118664286Y-60332143D01*
X118521429Y-60189286D01*
X118450000Y-59903571D01*
X118450000Y-59403571D01*
X118521429Y-59117857D01*
X118664286Y-58975000D01*
X118807143Y-58903571D01*
X115828572Y-54382143D02*
X116971429Y-54382143D01*
X116400000Y-54953571D02*
X116400000Y-53810714D01*
D13*
X99603570Y-104454762D02*
X99603570Y-102454762D01*
X100270237Y-103883333D01*
X100936904Y-102454762D01*
X100936904Y-104454762D01*
X101889284Y-104454762D02*
X101889284Y-102454762D01*
X103032142Y-104454762D02*
X102174999Y-103311905D01*
X103032142Y-102454762D02*
X101889284Y-103597619D01*
X103889284Y-103407143D02*
X104555951Y-103407143D01*
X104841665Y-104454762D02*
X103889284Y-104454762D01*
X103889284Y-102454762D01*
X104841665Y-102454762D01*
X106079761Y-102454762D02*
X106270237Y-102454762D01*
X106460713Y-102550000D01*
X106555951Y-102645238D01*
X106651189Y-102835714D01*
X106746428Y-103216667D01*
X106746428Y-103692857D01*
X106651189Y-104073810D01*
X106555951Y-104264286D01*
X106460713Y-104359524D01*
X106270237Y-104454762D01*
X106079761Y-104454762D01*
X105889285Y-104359524D01*
X105794047Y-104264286D01*
X105698808Y-104073810D01*
X105603570Y-103692857D01*
X105603570Y-103216667D01*
X105698808Y-102835714D01*
X105794047Y-102645238D01*
X105889285Y-102550000D01*
X106079761Y-102454762D01*
X108460713Y-103121429D02*
X108460713Y-104454762D01*
X107984523Y-102359524D02*
X107508332Y-103788095D01*
X108746428Y-103788095D01*
X109317856Y-102454762D02*
X110651190Y-102454762D01*
X109317856Y-104454762D01*
X110651190Y-104454762D01*
X111698809Y-103311905D02*
X111508333Y-103216667D01*
X111413094Y-103121429D01*
X111317856Y-102930952D01*
X111317856Y-102835714D01*
X111413094Y-102645238D01*
X111508333Y-102550000D01*
X111698809Y-102454762D01*
X112079761Y-102454762D01*
X112270237Y-102550000D01*
X112365475Y-102645238D01*
X112460714Y-102835714D01*
X112460714Y-102930952D01*
X112365475Y-103121429D01*
X112270237Y-103216667D01*
X112079761Y-103311905D01*
X111698809Y-103311905D01*
X111508333Y-103407143D01*
X111413094Y-103502381D01*
X111317856Y-103692857D01*
X111317856Y-104073810D01*
X111413094Y-104264286D01*
X111508333Y-104359524D01*
X111698809Y-104454762D01*
X112079761Y-104454762D01*
X112270237Y-104359524D01*
X112365475Y-104264286D01*
X112460714Y-104073810D01*
X112460714Y-103692857D01*
X112365475Y-103502381D01*
X112270237Y-103407143D01*
X112079761Y-103311905D01*
X113032142Y-102454762D02*
X113698809Y-104454762D01*
X114365476Y-102454762D01*
X114841666Y-102454762D02*
X115317857Y-104454762D01*
X115698809Y-103026190D01*
X116079762Y-104454762D01*
X116555952Y-102454762D01*
X117889285Y-102454762D02*
X117889285Y-103883333D01*
X117794047Y-104169048D01*
X117603571Y-104359524D01*
X117317856Y-104454762D01*
X117127380Y-104454762D01*
X119698809Y-103121429D02*
X119698809Y-104454762D01*
X119222619Y-102359524D02*
X118746428Y-103788095D01*
X119984524Y-103788095D01*
X122270238Y-104454762D02*
X122270238Y-102454762D01*
X122746429Y-102454762D01*
X123032143Y-102550000D01*
X123222619Y-102740476D01*
X123317858Y-102930952D01*
X123413096Y-103311905D01*
X123413096Y-103597619D01*
X123317858Y-103978571D01*
X123222619Y-104169048D01*
X123032143Y-104359524D01*
X122746429Y-104454762D01*
X122270238Y-104454762D01*
X125032143Y-104359524D02*
X124841667Y-104454762D01*
X124460715Y-104454762D01*
X124270238Y-104359524D01*
X124175000Y-104169048D01*
X124175000Y-103407143D01*
X124270238Y-103216667D01*
X124460715Y-103121429D01*
X124841667Y-103121429D01*
X125032143Y-103216667D01*
X125127381Y-103407143D01*
X125127381Y-103597619D01*
X124175000Y-103788095D01*
X125794048Y-103121429D02*
X126270239Y-104454762D01*
X126746429Y-103121429D01*
X129698811Y-103407143D02*
X129984525Y-103502381D01*
X130079764Y-103597619D01*
X130175002Y-103788095D01*
X130175002Y-104073810D01*
X130079764Y-104264286D01*
X129984525Y-104359524D01*
X129794049Y-104454762D01*
X129032144Y-104454762D01*
X129032144Y-102454762D01*
X129698811Y-102454762D01*
X129889287Y-102550000D01*
X129984525Y-102645238D01*
X130079764Y-102835714D01*
X130079764Y-103026190D01*
X129984525Y-103216667D01*
X129889287Y-103311905D01*
X129698811Y-103407143D01*
X129032144Y-103407143D01*
X131317859Y-104454762D02*
X131127383Y-104359524D01*
X131032144Y-104264286D01*
X130936906Y-104073810D01*
X130936906Y-103502381D01*
X131032144Y-103311905D01*
X131127383Y-103216667D01*
X131317859Y-103121429D01*
X131603573Y-103121429D01*
X131794049Y-103216667D01*
X131889287Y-103311905D01*
X131984525Y-103502381D01*
X131984525Y-104073810D01*
X131889287Y-104264286D01*
X131794049Y-104359524D01*
X131603573Y-104454762D01*
X131317859Y-104454762D01*
X133698811Y-104454762D02*
X133698811Y-103407143D01*
X133603573Y-103216667D01*
X133413097Y-103121429D01*
X133032145Y-103121429D01*
X132841668Y-103216667D01*
X133698811Y-104359524D02*
X133508335Y-104454762D01*
X133032145Y-104454762D01*
X132841668Y-104359524D01*
X132746430Y-104169048D01*
X132746430Y-103978571D01*
X132841668Y-103788095D01*
X133032145Y-103692857D01*
X133508335Y-103692857D01*
X133698811Y-103597619D01*
X134651192Y-104454762D02*
X134651192Y-103121429D01*
X134651192Y-103502381D02*
X134746431Y-103311905D01*
X134841669Y-103216667D01*
X135032145Y-103121429D01*
X135222621Y-103121429D01*
X136746430Y-104454762D02*
X136746430Y-102454762D01*
X136746430Y-104359524D02*
X136555954Y-104454762D01*
X136175002Y-104454762D01*
X135984526Y-104359524D01*
X135889287Y-104264286D01*
X135794049Y-104073810D01*
X135794049Y-103502381D01*
X135889287Y-103311905D01*
X135984526Y-103216667D01*
X136175002Y-103121429D01*
X136555954Y-103121429D01*
X136746430Y-103216667D01*
D14*
X167050000Y-80275000D02*
X167050000Y-81475000D01*
X165300000Y-81475000D02*
X165300000Y-80275000D01*
X113375000Y-70825000D02*
X114375000Y-70825000D01*
X114375000Y-69125000D02*
X113375000Y-69125000D01*
X113325000Y-74700000D02*
X114325000Y-74700000D01*
X114325000Y-73000000D02*
X113325000Y-73000000D01*
D15*
X133175000Y-93275000D02*
X133175000Y-94675000D01*
X133175000Y-94675000D02*
X135975000Y-94675000D01*
X133175000Y-93275000D02*
X135975000Y-93275000D01*
X101660000Y-95470000D02*
X101660000Y-98130000D01*
X101660000Y-98130000D02*
X104440000Y-98130000D01*
X104440000Y-98130000D02*
X104440000Y-95470000D01*
X104440000Y-95470000D02*
X101660000Y-95470000D01*
X101660000Y-94200000D02*
X101660000Y-92810000D01*
X101660000Y-92810000D02*
X103050000Y-92810000D01*
X122720000Y-50710000D02*
X114980000Y-50710000D01*
X114980000Y-50710000D02*
X114980000Y-53490000D01*
X114980000Y-53490000D02*
X122720000Y-53490000D01*
X122720000Y-53490000D02*
X122720000Y-50710000D01*
X123990000Y-50710000D02*
X125380000Y-50710000D01*
X125380000Y-50710000D02*
X125380000Y-52100000D01*
X169560000Y-69665000D02*
X169560000Y-77405000D01*
X169560000Y-77405000D02*
X172340000Y-77405000D01*
X172340000Y-77405000D02*
X172340000Y-69665000D01*
X172340000Y-69665000D02*
X169560000Y-69665000D01*
X169560000Y-68395000D02*
X169560000Y-67005000D01*
X169560000Y-67005000D02*
X170950000Y-67005000D01*
X142260000Y-94630000D02*
X142260000Y-93700000D01*
X142260000Y-91470000D02*
X142260000Y-92400000D01*
X142260000Y-91470000D02*
X139100000Y-91470000D01*
X142260000Y-94630000D02*
X140800000Y-94630000D01*
X168435000Y-88730000D02*
X168435000Y-87800000D01*
X168435000Y-85570000D02*
X168435000Y-86500000D01*
X168435000Y-85570000D02*
X165275000Y-85570000D01*
X168435000Y-88730000D02*
X166975000Y-88730000D01*
D14*
X140775000Y-86975000D02*
X140775000Y-88175000D01*
X139025000Y-88175000D02*
X139025000Y-86975000D01*
X140600000Y-95875000D02*
X141800000Y-95875000D01*
X141800000Y-97625000D02*
X140600000Y-97625000D01*
X152475000Y-68075000D02*
X153675000Y-68075000D01*
X153675000Y-69825000D02*
X152475000Y-69825000D01*
X152475000Y-64300000D02*
X153675000Y-64300000D01*
X153675000Y-66050000D02*
X152475000Y-66050000D01*
X152450000Y-60575000D02*
X153650000Y-60575000D01*
X153650000Y-62325000D02*
X152450000Y-62325000D01*
X168674620Y-92698740D02*
X169675380Y-92698740D01*
X169175000Y-93199120D02*
X169175000Y-92200900D01*
X170175760Y-97700000D02*
G75*
G03X170175760Y-97700000I-1000760J0D01*
G01*
X175375140Y-97700000D02*
G75*
G03X175375140Y-97700000I-6200140J0D01*
G01*
D15*
X104440000Y-88200000D02*
X104440000Y-75380000D01*
X104440000Y-75380000D02*
X101660000Y-75380000D01*
X101660000Y-75380000D02*
X101660000Y-88200000D01*
X101660000Y-88200000D02*
X104440000Y-88200000D01*
X104440000Y-89470000D02*
X104440000Y-90860000D01*
X104440000Y-90860000D02*
X103050000Y-90860000D01*
X144675000Y-50735000D02*
X131855000Y-50735000D01*
X131855000Y-50735000D02*
X131855000Y-53515000D01*
X131855000Y-53515000D02*
X144675000Y-53515000D01*
X144675000Y-53515000D02*
X144675000Y-50735000D01*
X145945000Y-50735000D02*
X147335000Y-50735000D01*
X147335000Y-50735000D02*
X147335000Y-52125000D01*
D14*
X112325714Y-61150000D02*
G75*
G03X112325714Y-61150000I-1750714J0D01*
G01*
X113800000Y-57925000D02*
X113800000Y-57950000D01*
X113800000Y-64375000D02*
X113800000Y-64350000D01*
X107350000Y-64375000D02*
X107350000Y-64350000D01*
X107350000Y-57950000D02*
X107350000Y-57925000D01*
X113800000Y-59850000D02*
X113800000Y-62450000D01*
X107350000Y-57925000D02*
X113800000Y-57925000D01*
X107350000Y-59850000D02*
X107350000Y-62450000D01*
X107350000Y-64375000D02*
X113800000Y-64375000D01*
X131200000Y-65115000D02*
X131200000Y-65365000D01*
X138950000Y-65115000D02*
X138950000Y-65450000D01*
X138950000Y-78265000D02*
X138950000Y-77930000D01*
X131200000Y-78265000D02*
X131200000Y-77930000D01*
X131200000Y-65115000D02*
X138950000Y-65115000D01*
X131200000Y-78265000D02*
X138950000Y-78265000D01*
X131200000Y-65365000D02*
X129400000Y-65365000D01*
X116300000Y-55325000D02*
X115300000Y-55325000D01*
X115300000Y-57025000D02*
X116300000Y-57025000D01*
X153875000Y-90150000D02*
X153875000Y-91350000D01*
X152125000Y-91350000D02*
X152125000Y-90150000D01*
X151285000Y-97895000D02*
X154685000Y-97895000D01*
X151285000Y-98655000D02*
X154685000Y-98655000D01*
X148220000Y-94385000D02*
X157750000Y-94385000D01*
X157750000Y-94385000D02*
X157750000Y-103915000D01*
X157750000Y-103915000D02*
X148220000Y-103915000D01*
X148220000Y-103915000D02*
X148220000Y-94385000D01*
X154786735Y-98275000D02*
G75*
G03X154786735Y-98275000I-1801735J0D01*
G01*
D15*
X119000000Y-93275000D02*
X119000000Y-94675000D01*
X119000000Y-94675000D02*
X121800000Y-94675000D01*
X119000000Y-93275000D02*
X121800000Y-93275000D01*
D14*
X127350000Y-94850000D02*
X126150000Y-94850000D01*
X126150000Y-93100000D02*
X127350000Y-93100000D01*
X164527381Y-81041666D02*
X164051190Y-81375000D01*
X164527381Y-81613095D02*
X163527381Y-81613095D01*
X163527381Y-81232142D01*
X163575000Y-81136904D01*
X163622619Y-81089285D01*
X163717857Y-81041666D01*
X163860714Y-81041666D01*
X163955952Y-81089285D01*
X164003571Y-81136904D01*
X164051190Y-81232142D01*
X164051190Y-81613095D01*
X163527381Y-80708333D02*
X163527381Y-80041666D01*
X164527381Y-80470238D01*
X113658334Y-72432143D02*
X113610715Y-72479762D01*
X113467858Y-72527381D01*
X113372620Y-72527381D01*
X113229762Y-72479762D01*
X113134524Y-72384524D01*
X113086905Y-72289286D01*
X113039286Y-72098810D01*
X113039286Y-71955952D01*
X113086905Y-71765476D01*
X113134524Y-71670238D01*
X113229762Y-71575000D01*
X113372620Y-71527381D01*
X113467858Y-71527381D01*
X113610715Y-71575000D01*
X113658334Y-71622619D01*
X114610715Y-72527381D02*
X114039286Y-72527381D01*
X114325000Y-72527381D02*
X114325000Y-71527381D01*
X114229762Y-71670238D01*
X114134524Y-71765476D01*
X114039286Y-71813095D01*
X107726191Y-70427381D02*
X107154762Y-70427381D01*
X107440476Y-70427381D02*
X107440476Y-69427381D01*
X107345238Y-69570238D01*
X107250000Y-69665476D01*
X107154762Y-69713095D01*
X108345238Y-69427381D02*
X108440477Y-69427381D01*
X108535715Y-69475000D01*
X108583334Y-69522619D01*
X108630953Y-69617857D01*
X108678572Y-69808333D01*
X108678572Y-70046429D01*
X108630953Y-70236905D01*
X108583334Y-70332143D01*
X108535715Y-70379762D01*
X108440477Y-70427381D01*
X108345238Y-70427381D01*
X108250000Y-70379762D01*
X108202381Y-70332143D01*
X108154762Y-70236905D01*
X108107143Y-70046429D01*
X108107143Y-69808333D01*
X108154762Y-69617857D01*
X108202381Y-69522619D01*
X108250000Y-69475000D01*
X108345238Y-69427381D01*
X109297619Y-69427381D02*
X109392858Y-69427381D01*
X109488096Y-69475000D01*
X109535715Y-69522619D01*
X109583334Y-69617857D01*
X109630953Y-69808333D01*
X109630953Y-70046429D01*
X109583334Y-70236905D01*
X109535715Y-70332143D01*
X109488096Y-70379762D01*
X109392858Y-70427381D01*
X109297619Y-70427381D01*
X109202381Y-70379762D01*
X109154762Y-70332143D01*
X109107143Y-70236905D01*
X109059524Y-70046429D01*
X109059524Y-69808333D01*
X109107143Y-69617857D01*
X109154762Y-69522619D01*
X109202381Y-69475000D01*
X109297619Y-69427381D01*
X110059524Y-69760714D02*
X110059524Y-70427381D01*
X110059524Y-69855952D02*
X110107143Y-69808333D01*
X110202381Y-69760714D01*
X110345239Y-69760714D01*
X110440477Y-69808333D01*
X110488096Y-69903571D01*
X110488096Y-70427381D01*
X111297620Y-69903571D02*
X110964286Y-69903571D01*
X110964286Y-70427381D02*
X110964286Y-69427381D01*
X111440477Y-69427381D01*
X113658334Y-76307143D02*
X113610715Y-76354762D01*
X113467858Y-76402381D01*
X113372620Y-76402381D01*
X113229762Y-76354762D01*
X113134524Y-76259524D01*
X113086905Y-76164286D01*
X113039286Y-75973810D01*
X113039286Y-75830952D01*
X113086905Y-75640476D01*
X113134524Y-75545238D01*
X113229762Y-75450000D01*
X113372620Y-75402381D01*
X113467858Y-75402381D01*
X113610715Y-75450000D01*
X113658334Y-75497619D01*
X114039286Y-75497619D02*
X114086905Y-75450000D01*
X114182143Y-75402381D01*
X114420239Y-75402381D01*
X114515477Y-75450000D01*
X114563096Y-75497619D01*
X114610715Y-75592857D01*
X114610715Y-75688095D01*
X114563096Y-75830952D01*
X113991667Y-76402381D01*
X114610715Y-76402381D01*
X108107143Y-73397619D02*
X108154762Y-73350000D01*
X108250000Y-73302381D01*
X108488096Y-73302381D01*
X108583334Y-73350000D01*
X108630953Y-73397619D01*
X108678572Y-73492857D01*
X108678572Y-73588095D01*
X108630953Y-73730952D01*
X108059524Y-74302381D01*
X108678572Y-74302381D01*
X109059524Y-73397619D02*
X109107143Y-73350000D01*
X109202381Y-73302381D01*
X109440477Y-73302381D01*
X109535715Y-73350000D01*
X109583334Y-73397619D01*
X109630953Y-73492857D01*
X109630953Y-73588095D01*
X109583334Y-73730952D01*
X109011905Y-74302381D01*
X109630953Y-74302381D01*
X110488096Y-73635714D02*
X110488096Y-74302381D01*
X110059524Y-73635714D02*
X110059524Y-74159524D01*
X110107143Y-74254762D01*
X110202381Y-74302381D01*
X110345239Y-74302381D01*
X110440477Y-74254762D01*
X110488096Y-74207143D01*
X111297620Y-73778571D02*
X110964286Y-73778571D01*
X110964286Y-74302381D02*
X110964286Y-73302381D01*
X111440477Y-73302381D01*
X134236905Y-92977381D02*
X134236905Y-91977381D01*
X134475000Y-91977381D01*
X134617858Y-92025000D01*
X134713096Y-92120238D01*
X134760715Y-92215476D01*
X134808334Y-92405952D01*
X134808334Y-92548810D01*
X134760715Y-92739286D01*
X134713096Y-92834524D01*
X134617858Y-92929762D01*
X134475000Y-92977381D01*
X134236905Y-92977381D01*
X135760715Y-92977381D02*
X135189286Y-92977381D01*
X135475000Y-92977381D02*
X135475000Y-91977381D01*
X135379762Y-92120238D01*
X135284524Y-92215476D01*
X135189286Y-92263095D01*
X164536905Y-53227381D02*
X164536905Y-52227381D01*
X164775000Y-52227381D01*
X164917858Y-52275000D01*
X165013096Y-52370238D01*
X165060715Y-52465476D01*
X165108334Y-52655952D01*
X165108334Y-52798810D01*
X165060715Y-52989286D01*
X165013096Y-53084524D01*
X164917858Y-53179762D01*
X164775000Y-53227381D01*
X164536905Y-53227381D01*
X165489286Y-52322619D02*
X165536905Y-52275000D01*
X165632143Y-52227381D01*
X165870239Y-52227381D01*
X165965477Y-52275000D01*
X166013096Y-52322619D01*
X166060715Y-52417857D01*
X166060715Y-52513095D01*
X166013096Y-52655952D01*
X165441667Y-53227381D01*
X166060715Y-53227381D01*
X102311905Y-100977381D02*
X102311905Y-99977381D01*
X102692858Y-99977381D01*
X102788096Y-100025000D01*
X102835715Y-100072619D01*
X102883334Y-100167857D01*
X102883334Y-100310714D01*
X102835715Y-100405952D01*
X102788096Y-100453571D01*
X102692858Y-100501190D01*
X102311905Y-100501190D01*
X103835715Y-100977381D02*
X103264286Y-100977381D01*
X103550000Y-100977381D02*
X103550000Y-99977381D01*
X103454762Y-100120238D01*
X103359524Y-100215476D01*
X103264286Y-100263095D01*
X101716667Y-99582381D02*
X101716667Y-98582381D01*
X102097620Y-98582381D01*
X102192858Y-98630000D01*
X102240477Y-98677619D01*
X102288096Y-98772857D01*
X102288096Y-98915714D01*
X102240477Y-99010952D01*
X102192858Y-99058571D01*
X102097620Y-99106190D01*
X101716667Y-99106190D01*
X102621429Y-98582381D02*
X102859524Y-99582381D01*
X103050001Y-98868095D01*
X103240477Y-99582381D01*
X103478572Y-98582381D01*
X104430953Y-99582381D02*
X104097619Y-99106190D01*
X103859524Y-99582381D02*
X103859524Y-98582381D01*
X104240477Y-98582381D01*
X104335715Y-98630000D01*
X104383334Y-98677619D01*
X104430953Y-98772857D01*
X104430953Y-98915714D01*
X104383334Y-99010952D01*
X104335715Y-99058571D01*
X104240477Y-99106190D01*
X103859524Y-99106190D01*
X125641905Y-52552381D02*
X125641905Y-51552381D01*
X126022858Y-51552381D01*
X126118096Y-51600000D01*
X126165715Y-51647619D01*
X126213334Y-51742857D01*
X126213334Y-51885714D01*
X126165715Y-51980952D01*
X126118096Y-52028571D01*
X126022858Y-52076190D01*
X125641905Y-52076190D01*
X126594286Y-51647619D02*
X126641905Y-51600000D01*
X126737143Y-51552381D01*
X126975239Y-51552381D01*
X127070477Y-51600000D01*
X127118096Y-51647619D01*
X127165715Y-51742857D01*
X127165715Y-51838095D01*
X127118096Y-51980952D01*
X126546667Y-52552381D01*
X127165715Y-52552381D01*
X118842857Y-50304762D02*
X118985714Y-50352381D01*
X119223810Y-50352381D01*
X119319048Y-50304762D01*
X119366667Y-50257143D01*
X119414286Y-50161905D01*
X119414286Y-50066667D01*
X119366667Y-49971429D01*
X119319048Y-49923810D01*
X119223810Y-49876190D01*
X119033333Y-49828571D01*
X118938095Y-49780952D01*
X118890476Y-49733333D01*
X118842857Y-49638095D01*
X118842857Y-49542857D01*
X118890476Y-49447619D01*
X118938095Y-49400000D01*
X119033333Y-49352381D01*
X119271429Y-49352381D01*
X119414286Y-49400000D01*
X119747619Y-49352381D02*
X119985714Y-50352381D01*
X120176191Y-49638095D01*
X120366667Y-50352381D01*
X120604762Y-49352381D01*
X120985714Y-50352381D02*
X120985714Y-49352381D01*
X121223809Y-49352381D01*
X121366667Y-49400000D01*
X121461905Y-49495238D01*
X121509524Y-49590476D01*
X121557143Y-49780952D01*
X121557143Y-49923810D01*
X121509524Y-50114286D01*
X121461905Y-50209524D01*
X121366667Y-50304762D01*
X121223809Y-50352381D01*
X120985714Y-50352381D01*
X170211905Y-66457381D02*
X170211905Y-65457381D01*
X170592858Y-65457381D01*
X170688096Y-65505000D01*
X170735715Y-65552619D01*
X170783334Y-65647857D01*
X170783334Y-65790714D01*
X170735715Y-65885952D01*
X170688096Y-65933571D01*
X170592858Y-65981190D01*
X170211905Y-65981190D01*
X171116667Y-65457381D02*
X171735715Y-65457381D01*
X171402381Y-65838333D01*
X171545239Y-65838333D01*
X171640477Y-65885952D01*
X171688096Y-65933571D01*
X171735715Y-66028810D01*
X171735715Y-66266905D01*
X171688096Y-66362143D01*
X171640477Y-66409762D01*
X171545239Y-66457381D01*
X171259524Y-66457381D01*
X171164286Y-66409762D01*
X171116667Y-66362143D01*
X169354762Y-77857381D02*
X169354762Y-78666905D01*
X169402381Y-78762143D01*
X169450000Y-78809762D01*
X169545238Y-78857381D01*
X169735715Y-78857381D01*
X169830953Y-78809762D01*
X169878572Y-78762143D01*
X169926191Y-78666905D01*
X169926191Y-77857381D01*
X170354762Y-78571667D02*
X170830953Y-78571667D01*
X170259524Y-78857381D02*
X170592857Y-77857381D01*
X170926191Y-78857381D01*
X171830953Y-78857381D02*
X171497619Y-78381190D01*
X171259524Y-78857381D02*
X171259524Y-77857381D01*
X171640477Y-77857381D01*
X171735715Y-77905000D01*
X171783334Y-77952619D01*
X171830953Y-78047857D01*
X171830953Y-78190714D01*
X171783334Y-78285952D01*
X171735715Y-78333571D01*
X171640477Y-78381190D01*
X171259524Y-78381190D01*
X172116667Y-77857381D02*
X172688096Y-77857381D01*
X172402381Y-78857381D02*
X172402381Y-77857381D01*
X141404762Y-91097619D02*
X141309524Y-91050000D01*
X141214286Y-90954762D01*
X141071429Y-90811905D01*
X140976190Y-90764286D01*
X140880952Y-90764286D01*
X140928571Y-91002381D02*
X140833333Y-90954762D01*
X140738095Y-90859524D01*
X140690476Y-90669048D01*
X140690476Y-90335714D01*
X140738095Y-90145238D01*
X140833333Y-90050000D01*
X140928571Y-90002381D01*
X141119048Y-90002381D01*
X141214286Y-90050000D01*
X141309524Y-90145238D01*
X141357143Y-90335714D01*
X141357143Y-90669048D01*
X141309524Y-90859524D01*
X141214286Y-90954762D01*
X141119048Y-91002381D01*
X140928571Y-91002381D01*
X142309524Y-91002381D02*
X141738095Y-91002381D01*
X142023809Y-91002381D02*
X142023809Y-90002381D01*
X141928571Y-90145238D01*
X141833333Y-90240476D01*
X141738095Y-90288095D01*
X167579762Y-85197619D02*
X167484524Y-85150000D01*
X167389286Y-85054762D01*
X167246429Y-84911905D01*
X167151190Y-84864286D01*
X167055952Y-84864286D01*
X167103571Y-85102381D02*
X167008333Y-85054762D01*
X166913095Y-84959524D01*
X166865476Y-84769048D01*
X166865476Y-84435714D01*
X166913095Y-84245238D01*
X167008333Y-84150000D01*
X167103571Y-84102381D01*
X167294048Y-84102381D01*
X167389286Y-84150000D01*
X167484524Y-84245238D01*
X167532143Y-84435714D01*
X167532143Y-84769048D01*
X167484524Y-84959524D01*
X167389286Y-85054762D01*
X167294048Y-85102381D01*
X167103571Y-85102381D01*
X167913095Y-84197619D02*
X167960714Y-84150000D01*
X168055952Y-84102381D01*
X168294048Y-84102381D01*
X168389286Y-84150000D01*
X168436905Y-84197619D01*
X168484524Y-84292857D01*
X168484524Y-84388095D01*
X168436905Y-84530952D01*
X167865476Y-85102381D01*
X168484524Y-85102381D01*
X137633334Y-88027381D02*
X137300000Y-87551190D01*
X137061905Y-88027381D02*
X137061905Y-87027381D01*
X137442858Y-87027381D01*
X137538096Y-87075000D01*
X137585715Y-87122619D01*
X137633334Y-87217857D01*
X137633334Y-87360714D01*
X137585715Y-87455952D01*
X137538096Y-87503571D01*
X137442858Y-87551190D01*
X137061905Y-87551190D01*
X138585715Y-88027381D02*
X138014286Y-88027381D01*
X138300000Y-88027381D02*
X138300000Y-87027381D01*
X138204762Y-87170238D01*
X138109524Y-87265476D01*
X138014286Y-87313095D01*
X141033334Y-99302381D02*
X140700000Y-98826190D01*
X140461905Y-99302381D02*
X140461905Y-98302381D01*
X140842858Y-98302381D01*
X140938096Y-98350000D01*
X140985715Y-98397619D01*
X141033334Y-98492857D01*
X141033334Y-98635714D01*
X140985715Y-98730952D01*
X140938096Y-98778571D01*
X140842858Y-98826190D01*
X140461905Y-98826190D01*
X141414286Y-98397619D02*
X141461905Y-98350000D01*
X141557143Y-98302381D01*
X141795239Y-98302381D01*
X141890477Y-98350000D01*
X141938096Y-98397619D01*
X141985715Y-98492857D01*
X141985715Y-98588095D01*
X141938096Y-98730952D01*
X141366667Y-99302381D01*
X141985715Y-99302381D01*
X152908334Y-71502381D02*
X152575000Y-71026190D01*
X152336905Y-71502381D02*
X152336905Y-70502381D01*
X152717858Y-70502381D01*
X152813096Y-70550000D01*
X152860715Y-70597619D01*
X152908334Y-70692857D01*
X152908334Y-70835714D01*
X152860715Y-70930952D01*
X152813096Y-70978571D01*
X152717858Y-71026190D01*
X152336905Y-71026190D01*
X153241667Y-70502381D02*
X153860715Y-70502381D01*
X153527381Y-70883333D01*
X153670239Y-70883333D01*
X153765477Y-70930952D01*
X153813096Y-70978571D01*
X153860715Y-71073810D01*
X153860715Y-71311905D01*
X153813096Y-71407143D01*
X153765477Y-71454762D01*
X153670239Y-71502381D01*
X153384524Y-71502381D01*
X153289286Y-71454762D01*
X153241667Y-71407143D01*
X152908334Y-67727381D02*
X152575000Y-67251190D01*
X152336905Y-67727381D02*
X152336905Y-66727381D01*
X152717858Y-66727381D01*
X152813096Y-66775000D01*
X152860715Y-66822619D01*
X152908334Y-66917857D01*
X152908334Y-67060714D01*
X152860715Y-67155952D01*
X152813096Y-67203571D01*
X152717858Y-67251190D01*
X152336905Y-67251190D01*
X153765477Y-67060714D02*
X153765477Y-67727381D01*
X153527381Y-66679762D02*
X153289286Y-67394048D01*
X153908334Y-67394048D01*
X152883334Y-64002381D02*
X152550000Y-63526190D01*
X152311905Y-64002381D02*
X152311905Y-63002381D01*
X152692858Y-63002381D01*
X152788096Y-63050000D01*
X152835715Y-63097619D01*
X152883334Y-63192857D01*
X152883334Y-63335714D01*
X152835715Y-63430952D01*
X152788096Y-63478571D01*
X152692858Y-63526190D01*
X152311905Y-63526190D01*
X153788096Y-63002381D02*
X153311905Y-63002381D01*
X153264286Y-63478571D01*
X153311905Y-63430952D01*
X153407143Y-63383333D01*
X153645239Y-63383333D01*
X153740477Y-63430952D01*
X153788096Y-63478571D01*
X153835715Y-63573810D01*
X153835715Y-63811905D01*
X153788096Y-63907143D01*
X153740477Y-63954762D01*
X153645239Y-64002381D01*
X153407143Y-64002381D01*
X153311905Y-63954762D01*
X153264286Y-63907143D01*
X165463095Y-98079762D02*
X165605952Y-98127381D01*
X165844048Y-98127381D01*
X165939286Y-98079762D01*
X165986905Y-98032143D01*
X166034524Y-97936905D01*
X166034524Y-97841667D01*
X165986905Y-97746429D01*
X165939286Y-97698810D01*
X165844048Y-97651190D01*
X165653571Y-97603571D01*
X165558333Y-97555952D01*
X165510714Y-97508333D01*
X165463095Y-97413095D01*
X165463095Y-97317857D01*
X165510714Y-97222619D01*
X165558333Y-97175000D01*
X165653571Y-97127381D01*
X165891667Y-97127381D01*
X166034524Y-97175000D01*
X166463095Y-98127381D02*
X166463095Y-97127381D01*
X166844048Y-97127381D01*
X166939286Y-97175000D01*
X166986905Y-97222619D01*
X167034524Y-97317857D01*
X167034524Y-97460714D01*
X166986905Y-97555952D01*
X166939286Y-97603571D01*
X166844048Y-97651190D01*
X166463095Y-97651190D01*
X167986905Y-98127381D02*
X167415476Y-98127381D01*
X167701190Y-98127381D02*
X167701190Y-97127381D01*
X167605952Y-97270238D01*
X167510714Y-97365476D01*
X167415476Y-97413095D01*
X166055952Y-105054762D02*
X166198809Y-105102381D01*
X166436905Y-105102381D01*
X166532143Y-105054762D01*
X166579762Y-105007143D01*
X166627381Y-104911905D01*
X166627381Y-104816667D01*
X166579762Y-104721429D01*
X166532143Y-104673810D01*
X166436905Y-104626190D01*
X166246428Y-104578571D01*
X166151190Y-104530952D01*
X166103571Y-104483333D01*
X166055952Y-104388095D01*
X166055952Y-104292857D01*
X166103571Y-104197619D01*
X166151190Y-104150000D01*
X166246428Y-104102381D01*
X166484524Y-104102381D01*
X166627381Y-104150000D01*
X167055952Y-105102381D02*
X167055952Y-104102381D01*
X167436905Y-104102381D01*
X167532143Y-104150000D01*
X167579762Y-104197619D01*
X167627381Y-104292857D01*
X167627381Y-104435714D01*
X167579762Y-104530952D01*
X167532143Y-104578571D01*
X167436905Y-104626190D01*
X167055952Y-104626190D01*
X168055952Y-104578571D02*
X168389286Y-104578571D01*
X168532143Y-105102381D02*
X168055952Y-105102381D01*
X168055952Y-104102381D01*
X168532143Y-104102381D01*
X168913095Y-104816667D02*
X169389286Y-104816667D01*
X168817857Y-105102381D02*
X169151190Y-104102381D01*
X169484524Y-105102381D01*
X169817857Y-105102381D02*
X169817857Y-104102381D01*
X170389286Y-105102381D02*
X169960714Y-104530952D01*
X170389286Y-104102381D02*
X169817857Y-104673810D01*
X170817857Y-104578571D02*
X171151191Y-104578571D01*
X171294048Y-105102381D02*
X170817857Y-105102381D01*
X170817857Y-104102381D01*
X171294048Y-104102381D01*
X172294048Y-105102381D02*
X171960714Y-104626190D01*
X171722619Y-105102381D02*
X171722619Y-104102381D01*
X172103572Y-104102381D01*
X172198810Y-104150000D01*
X172246429Y-104197619D01*
X172294048Y-104292857D01*
X172294048Y-104435714D01*
X172246429Y-104530952D01*
X172198810Y-104578571D01*
X172103572Y-104626190D01*
X171722619Y-104626190D01*
X169246429Y-90580332D02*
X169246429Y-89818427D01*
X169627381Y-90199379D02*
X168865476Y-90199379D01*
X102311905Y-92312381D02*
X102311905Y-91312381D01*
X102692858Y-91312381D01*
X102788096Y-91360000D01*
X102835715Y-91407619D01*
X102883334Y-91502857D01*
X102883334Y-91645714D01*
X102835715Y-91740952D01*
X102788096Y-91788571D01*
X102692858Y-91836190D01*
X102311905Y-91836190D01*
X103740477Y-91645714D02*
X103740477Y-92312381D01*
X103502381Y-91264762D02*
X103264286Y-91979048D01*
X103883334Y-91979048D01*
X102050001Y-73880000D02*
X101954763Y-73832381D01*
X101811906Y-73832381D01*
X101669048Y-73880000D01*
X101573810Y-73975238D01*
X101526191Y-74070476D01*
X101478572Y-74260952D01*
X101478572Y-74403810D01*
X101526191Y-74594286D01*
X101573810Y-74689524D01*
X101669048Y-74784762D01*
X101811906Y-74832381D01*
X101907144Y-74832381D01*
X102050001Y-74784762D01*
X102097620Y-74737143D01*
X102097620Y-74403810D01*
X101907144Y-74403810D01*
X102526191Y-74832381D02*
X102526191Y-73832381D01*
X102907144Y-73832381D01*
X103002382Y-73880000D01*
X103050001Y-73927619D01*
X103097620Y-74022857D01*
X103097620Y-74165714D01*
X103050001Y-74260952D01*
X103002382Y-74308571D01*
X102907144Y-74356190D01*
X102526191Y-74356190D01*
X103526191Y-74832381D02*
X103526191Y-73832381D01*
X104192857Y-73832381D02*
X104383334Y-73832381D01*
X104478572Y-73880000D01*
X104573810Y-73975238D01*
X104621429Y-74165714D01*
X104621429Y-74499048D01*
X104573810Y-74689524D01*
X104478572Y-74784762D01*
X104383334Y-74832381D01*
X104192857Y-74832381D01*
X104097619Y-74784762D01*
X104002381Y-74689524D01*
X103954762Y-74499048D01*
X103954762Y-74165714D01*
X104002381Y-73975238D01*
X104097619Y-73880000D01*
X104192857Y-73832381D01*
X147596905Y-52577381D02*
X147596905Y-51577381D01*
X147977858Y-51577381D01*
X148073096Y-51625000D01*
X148120715Y-51672619D01*
X148168334Y-51767857D01*
X148168334Y-51910714D01*
X148120715Y-52005952D01*
X148073096Y-52053571D01*
X147977858Y-52101190D01*
X147596905Y-52101190D01*
X149073096Y-51577381D02*
X148596905Y-51577381D01*
X148549286Y-52053571D01*
X148596905Y-52005952D01*
X148692143Y-51958333D01*
X148930239Y-51958333D01*
X149025477Y-52005952D01*
X149073096Y-52053571D01*
X149120715Y-52148810D01*
X149120715Y-52386905D01*
X149073096Y-52482143D01*
X149025477Y-52529762D01*
X148930239Y-52577381D01*
X148692143Y-52577381D01*
X148596905Y-52529762D01*
X148549286Y-52482143D01*
X109241667Y-57504762D02*
X109384524Y-57552381D01*
X109622620Y-57552381D01*
X109717858Y-57504762D01*
X109765477Y-57457143D01*
X109813096Y-57361905D01*
X109813096Y-57266667D01*
X109765477Y-57171429D01*
X109717858Y-57123810D01*
X109622620Y-57076190D01*
X109432143Y-57028571D01*
X109336905Y-56980952D01*
X109289286Y-56933333D01*
X109241667Y-56838095D01*
X109241667Y-56742857D01*
X109289286Y-56647619D01*
X109336905Y-56600000D01*
X109432143Y-56552381D01*
X109670239Y-56552381D01*
X109813096Y-56600000D01*
X110146429Y-56552381D02*
X110384524Y-57552381D01*
X110575001Y-56838095D01*
X110765477Y-57552381D01*
X111003572Y-56552381D01*
X111908334Y-57552381D02*
X111336905Y-57552381D01*
X111622619Y-57552381D02*
X111622619Y-56552381D01*
X111527381Y-56695238D01*
X111432143Y-56790476D01*
X111336905Y-56838095D01*
X134313095Y-63642381D02*
X134313095Y-64451905D01*
X134360714Y-64547143D01*
X134408333Y-64594762D01*
X134503571Y-64642381D01*
X134694048Y-64642381D01*
X134789286Y-64594762D01*
X134836905Y-64547143D01*
X134884524Y-64451905D01*
X134884524Y-63642381D01*
X135884524Y-64642381D02*
X135313095Y-64642381D01*
X135598809Y-64642381D02*
X135598809Y-63642381D01*
X135503571Y-63785238D01*
X135408333Y-63880476D01*
X135313095Y-63928095D01*
X117083334Y-58207143D02*
X117035715Y-58254762D01*
X116892858Y-58302381D01*
X116797620Y-58302381D01*
X116654762Y-58254762D01*
X116559524Y-58159524D01*
X116511905Y-58064286D01*
X116464286Y-57873810D01*
X116464286Y-57730952D01*
X116511905Y-57540476D01*
X116559524Y-57445238D01*
X116654762Y-57350000D01*
X116797620Y-57302381D01*
X116892858Y-57302381D01*
X117035715Y-57350000D01*
X117083334Y-57397619D01*
X117416667Y-57302381D02*
X118035715Y-57302381D01*
X117702381Y-57683333D01*
X117845239Y-57683333D01*
X117940477Y-57730952D01*
X117988096Y-57778571D01*
X118035715Y-57873810D01*
X118035715Y-58111905D01*
X117988096Y-58207143D01*
X117940477Y-58254762D01*
X117845239Y-58302381D01*
X117559524Y-58302381D01*
X117464286Y-58254762D01*
X117416667Y-58207143D01*
X150733334Y-91202381D02*
X150400000Y-90726190D01*
X150161905Y-91202381D02*
X150161905Y-90202381D01*
X150542858Y-90202381D01*
X150638096Y-90250000D01*
X150685715Y-90297619D01*
X150733334Y-90392857D01*
X150733334Y-90535714D01*
X150685715Y-90630952D01*
X150638096Y-90678571D01*
X150542858Y-90726190D01*
X150161905Y-90726190D01*
X151590477Y-90202381D02*
X151400000Y-90202381D01*
X151304762Y-90250000D01*
X151257143Y-90297619D01*
X151161905Y-90440476D01*
X151114286Y-90630952D01*
X151114286Y-91011905D01*
X151161905Y-91107143D01*
X151209524Y-91154762D01*
X151304762Y-91202381D01*
X151495239Y-91202381D01*
X151590477Y-91154762D01*
X151638096Y-91107143D01*
X151685715Y-91011905D01*
X151685715Y-90773810D01*
X151638096Y-90678571D01*
X151590477Y-90630952D01*
X151495239Y-90583333D01*
X151304762Y-90583333D01*
X151209524Y-90630952D01*
X151161905Y-90678571D01*
X151114286Y-90773810D01*
X152404762Y-95852381D02*
X152071428Y-95376190D01*
X151833333Y-95852381D02*
X151833333Y-94852381D01*
X152214286Y-94852381D01*
X152309524Y-94900000D01*
X152357143Y-94947619D01*
X152404762Y-95042857D01*
X152404762Y-95185714D01*
X152357143Y-95280952D01*
X152309524Y-95328571D01*
X152214286Y-95376190D01*
X151833333Y-95376190D01*
X152690476Y-94852381D02*
X153023809Y-95852381D01*
X153357143Y-94852381D01*
X154214286Y-95852381D02*
X153642857Y-95852381D01*
X153928571Y-95852381D02*
X153928571Y-94852381D01*
X153833333Y-94995238D01*
X153738095Y-95090476D01*
X153642857Y-95138095D01*
X120061905Y-92327381D02*
X120061905Y-91327381D01*
X120300000Y-91327381D01*
X120442858Y-91375000D01*
X120538096Y-91470238D01*
X120585715Y-91565476D01*
X120633334Y-91755952D01*
X120633334Y-91898810D01*
X120585715Y-92089286D01*
X120538096Y-92184524D01*
X120442858Y-92279762D01*
X120300000Y-92327381D01*
X120061905Y-92327381D01*
X120966667Y-91327381D02*
X121585715Y-91327381D01*
X121252381Y-91708333D01*
X121395239Y-91708333D01*
X121490477Y-91755952D01*
X121538096Y-91803571D01*
X121585715Y-91898810D01*
X121585715Y-92136905D01*
X121538096Y-92232143D01*
X121490477Y-92279762D01*
X121395239Y-92327381D01*
X121109524Y-92327381D01*
X121014286Y-92279762D01*
X120966667Y-92232143D01*
X126583334Y-92327381D02*
X126250000Y-91851190D01*
X126011905Y-92327381D02*
X126011905Y-91327381D01*
X126392858Y-91327381D01*
X126488096Y-91375000D01*
X126535715Y-91422619D01*
X126583334Y-91517857D01*
X126583334Y-91660714D01*
X126535715Y-91755952D01*
X126488096Y-91803571D01*
X126392858Y-91851190D01*
X126011905Y-91851190D01*
X127154762Y-91755952D02*
X127059524Y-91708333D01*
X127011905Y-91660714D01*
X126964286Y-91565476D01*
X126964286Y-91517857D01*
X127011905Y-91422619D01*
X127059524Y-91375000D01*
X127154762Y-91327381D01*
X127345239Y-91327381D01*
X127440477Y-91375000D01*
X127488096Y-91422619D01*
X127535715Y-91517857D01*
X127535715Y-91565476D01*
X127488096Y-91660714D01*
X127440477Y-91708333D01*
X127345239Y-91755952D01*
X127154762Y-91755952D01*
X127059524Y-91803571D01*
X127011905Y-91851190D01*
X126964286Y-91946429D01*
X126964286Y-92136905D01*
X127011905Y-92232143D01*
X127059524Y-92279762D01*
X127154762Y-92327381D01*
X127345239Y-92327381D01*
X127440477Y-92279762D01*
X127488096Y-92232143D01*
X127535715Y-92136905D01*
X127535715Y-91946429D01*
X127488096Y-91851190D01*
X127440477Y-91803571D01*
X127345239Y-91755952D01*
M02*
