G04 #@! TF.FileFunction,Soldermask,Top*
%FSLAX46Y46*%
G04 Gerber Fmt 4.6, Leading zero omitted, Abs format (unit mm)*
G04 Created by KiCad (PCBNEW 4.0.4+e1-6308~48~ubuntu16.04.1-stable) date Thu Jan  5 19:53:31 2017*
%MOMM*%
%LPD*%
G01*
G04 APERTURE LIST*
%ADD10C,0.100000*%
%ADD11R,1.700000X1.900000*%
%ADD12R,1.900000X1.650000*%
%ADD13R,1.600000X1.600000*%
%ADD14R,2.900000X1.924000*%
%ADD15R,2.100000X2.100000*%
%ADD16O,2.100000X2.100000*%
%ADD17R,2.300000X1.200000*%
%ADD18R,1.900000X1.700000*%
%ADD19C,2.000200*%
%ADD20R,1.950000X1.700000*%
%ADD21R,2.350000X1.000000*%
%ADD22C,3.600000*%
%ADD23C,1.910000*%
%ADD24R,1.910000X1.910000*%
G04 APERTURE END LIST*
D10*
D11*
X166175000Y-82225000D03*
X166175000Y-79525000D03*
D12*
X115125000Y-69975000D03*
X112625000Y-69975000D03*
X115075000Y-73850000D03*
X112575000Y-73850000D03*
D13*
X136075000Y-93975000D03*
X133875000Y-93975000D03*
D14*
X167325000Y-54413000D03*
X167325000Y-56737000D03*
X163275000Y-56737000D03*
X163225000Y-54413000D03*
D15*
X103050000Y-94200000D03*
D16*
X103050000Y-96740000D03*
D15*
X123990000Y-52100000D03*
D16*
X121450000Y-52100000D03*
X118910000Y-52100000D03*
X116370000Y-52100000D03*
D15*
X170950000Y-68395000D03*
D16*
X170950000Y-70935000D03*
X170950000Y-73475000D03*
X170950000Y-76015000D03*
D17*
X140000000Y-92100000D03*
X140000000Y-94000000D03*
X143000000Y-93050000D03*
X166175000Y-86200000D03*
X166175000Y-88100000D03*
X169175000Y-87150000D03*
D11*
X139900000Y-88925000D03*
X139900000Y-86225000D03*
D18*
X142550000Y-96750000D03*
X139850000Y-96750000D03*
X154425000Y-68950000D03*
X151725000Y-68950000D03*
X154425000Y-65175000D03*
X151725000Y-65175000D03*
X154400000Y-61450000D03*
X151700000Y-61450000D03*
D19*
X169175000Y-100875000D03*
X169175000Y-94525000D03*
D15*
X103050000Y-89470000D03*
D16*
X103050000Y-86930000D03*
X103050000Y-84390000D03*
X103050000Y-81850000D03*
X103050000Y-79310000D03*
X103050000Y-76770000D03*
D15*
X145945000Y-52125000D03*
D16*
X143405000Y-52125000D03*
X140865000Y-52125000D03*
X138325000Y-52125000D03*
X135785000Y-52125000D03*
X133245000Y-52125000D03*
D20*
X106600000Y-63400000D03*
X106600000Y-58900000D03*
X114550000Y-58900000D03*
X114550000Y-63400000D03*
D21*
X130375000Y-65975000D03*
X130375000Y-67245000D03*
X130375000Y-68515000D03*
X130375000Y-69785000D03*
X130375000Y-71055000D03*
X130375000Y-72325000D03*
X130375000Y-73595000D03*
X130375000Y-74865000D03*
X130375000Y-76135000D03*
X130375000Y-77405000D03*
X139775000Y-77405000D03*
X139775000Y-76135000D03*
X139775000Y-74865000D03*
X139775000Y-73595000D03*
X139775000Y-72325000D03*
X139775000Y-71055000D03*
X139775000Y-69785000D03*
X139775000Y-68515000D03*
X139775000Y-67245000D03*
X139775000Y-65975000D03*
D22*
X171725000Y-50400000D03*
X100575000Y-50400000D03*
D12*
X114550000Y-56175000D03*
X117050000Y-56175000D03*
D11*
X153000000Y-92100000D03*
X153000000Y-89400000D03*
D23*
X155525000Y-99150000D03*
D24*
X150445000Y-99150000D03*
D23*
X152985000Y-101690000D03*
D13*
X121900000Y-93975000D03*
X119700000Y-93975000D03*
D18*
X125400000Y-93975000D03*
X128100000Y-93975000D03*
M02*
